<?xml version="1.0" encoding="UTF-8"?>
<svg version="1.1" xmlns="http://www.w3.org/2000/svg" width="1173" height="923">
<path d="M0 0 C1.1141403 -0.00577571 2.22828061 -0.01155142 3.37618273 -0.01750216 C4.59233647 -0.01367737 5.80849021 -0.00985258 7.06149709 -0.00591189 C8.36487274 -0.00971756 9.66824838 -0.01352323 11.01112026 -0.01744422 C14.63868482 -0.02774101 18.26615198 -0.02556642 21.89372482 -0.02138886 C25.8366532 -0.01902621 29.77955745 -0.02818707 33.72247672 -0.03587306 C40.63637524 -0.04773004 47.55024735 -0.05208543 54.46415555 -0.05155188 C64.74555472 -0.05075934 75.02692049 -0.06130136 85.30831074 -0.07396745 C105.80943901 -0.09872122 126.31055921 -0.10749171 146.81170037 -0.11250394 C148.40472923 -0.1128957 148.40472923 -0.1128957 150.02994049 -0.11329538 C151.09406736 -0.11355565 152.15819423 -0.11381592 153.25456737 -0.11408409 C165.04087983 -0.11716498 176.82719005 -0.12366924 188.61350095 -0.13029677 C224.20533168 -0.14994615 259.79715998 -0.16634966 295.38899648 -0.1691733 C296.52770016 -0.16926736 297.66640385 -0.16936142 298.8396137 -0.16945833 C303.45438837 -0.16983682 308.06916305 -0.17020082 312.68393772 -0.17056131 C316.15739306 -0.17083303 319.63084839 -0.17110971 323.10430372 -0.17138678 C324.25206616 -0.1714748 325.39982861 -0.17156282 326.58237174 -0.17165351 C362.64699817 -0.17455906 398.71157101 -0.19665493 434.77617872 -0.23291022 C475.28110382 -0.27362812 515.7859924 -0.2973318 556.29093909 -0.29763281 C560.60939722 -0.29772964 564.92785533 -0.29789636 569.24631345 -0.29811293 C570.30965124 -0.29815704 571.37298904 -0.29820116 572.46854919 -0.29824661 C589.58782042 -0.29936693 606.70703801 -0.31678253 623.82629197 -0.33993225 C641.02993443 -0.36276463 658.23350435 -0.36700656 675.43715639 -0.35238295 C685.65940365 -0.34422604 695.88142252 -0.34994175 706.10364212 -0.3755638 C712.93260736 -0.39130037 719.76141025 -0.38885374 726.59037155 -0.37165707 C730.48094375 -0.362373 734.37107571 -0.36092838 738.2616138 -0.38162314 C742.4568054 -0.40374839 746.6509648 -0.38703734 750.84616506 -0.36667544 C752.0482718 -0.37923881 753.25037854 -0.39180218 754.48891276 -0.40474626 C765.17262952 -0.29358226 774.73321205 2.74227691 782.5813545 10.23071283 C791.12295093 20.1069337 793.34084815 30.4433346 792.55205762 43.16674799 C791.43879257 53.69596943 784.80501653 60.69957581 777.6907295 67.86645502 C775.74851964 69.84912758 773.91808314 71.923916 772.0813545 74.00415033 C767.46290467 79.15231483 762.72484005 84.18490971 757.98736036 89.22314447 C753.2845229 94.22760448 748.62788161 99.27034043 743.995417 104.34008783 C736.80080266 112.2098566 729.5505758 120.02747819 722.2688545 127.81665033 C717.15775839 133.28431834 712.08170286 138.78187162 707.03057325 144.30493158 C699.82038331 152.18292493 692.5619119 160.0153521 685.2688545 167.81665033 C680.15775839 173.28431834 675.08170286 178.78187162 670.03057325 184.30493158 C662.82038182 192.18292656 655.56180935 200.01525418 648.2688545 207.81665033 C640.65792389 215.96051262 633.11205933 224.15952821 625.65679395 232.446289 C624.84668363 233.34667398 624.03657331 234.24705896 623.20191419 235.17472833 C622.58462949 235.86093759 621.96734479 236.54714685 621.3313545 237.25415033 C622.4202378 237.25496748 622.4202378 237.25496748 623.53111875 237.25580114 C641.23564067 237.27080137 658.93988426 237.3133788 676.64426267 237.3862409 C685.20616701 237.4208198 693.76791152 237.44623707 702.32988966 237.44970697 C709.79691815 237.45275679 717.26366151 237.47338322 724.73057997 237.5146749 C728.68036125 237.53591488 732.62973809 237.54865232 736.57957685 237.54030412 C740.30625809 237.53270627 744.03212374 237.54881561 747.75865591 237.58221048 C749.76018833 237.59423445 751.761822 237.58192998 753.76334608 237.5685882 C764.76629674 237.70649472 774.47068599 240.4917833 782.5813545 248.23071283 C791.12295093 258.1069337 793.34084815 268.4433346 792.55205762 281.16674799 C791.43879257 291.69596943 784.80501653 298.69957581 777.6907295 305.86645502 C775.74851964 307.84912758 773.91808314 309.923916 772.0813545 312.00415033 C767.48456963 317.12722184 762.77186335 322.13817273 758.05767286 327.15283197 C752.10836608 333.48294198 746.21386 339.86202675 740.3313545 346.25415033 C733.42835407 353.75035926 726.50124189 361.22294949 719.54278028 368.66772455 C715.30137768 373.20799835 711.08192862 377.76787848 706.87261426 382.33789057 C703.02255401 386.51425952 699.14846712 390.66773705 695.2688545 394.81665033 C691.10013847 399.27536399 686.94965674 403.74881234 682.8313545 408.25415033 C678.12147734 413.40665911 673.36493685 418.51382781 668.59746778 423.61303705 C662.81421455 429.80113382 657.06956677 436.02431077 651.3313545 442.25415033 C649.37357654 444.37966295 647.41526423 446.50468072 645.4563545 448.62915033 C644.9721504 449.15460443 644.4879463 449.68005853 643.98906934 450.22143549 C641.20688282 453.23645618 638.41199389 456.2389594 635.604792 459.23071283 C634.97685743 459.90054193 634.34892286 460.57037103 633.70195997 461.26049799 C632.48645254 462.55596049 631.2694142 463.84998887 630.05059278 465.14233392 C629.21503858 466.03299555 629.21503858 466.03299555 628.3626045 466.94165033 C627.87340528 467.46114252 627.38420606 467.98063471 626.88018262 468.51586908 C624.94070875 470.69257999 623.14655608 472.9733602 621.3313545 475.25415033 C622.0572767 475.24954137 622.7831989 475.2449324 623.53111875 475.24018377 C641.2354395 475.1295201 658.93967182 475.04690445 676.64426267 474.99508947 C685.20626509 474.96936285 693.76803593 474.9343191 702.32988966 474.87695307 C709.79678809 474.8269475 717.26351872 474.79481908 724.73057997 474.78370786 C728.68045708 474.77721791 732.62985432 474.7620824 736.57957685 474.72550005 C740.30611316 474.69126828 744.03197729 474.68115122 747.75865591 474.68861192 C749.76030709 474.68660537 751.76188701 474.65985371 753.76334608 474.6320495 C764.78316816 474.694148 774.46167037 477.48318089 782.5813545 485.23071283 C791.12295093 495.1069337 793.34084815 505.4433346 792.55205762 518.16674799 C791.43903939 528.69363505 784.80796304 535.69662234 777.69512403 542.86206049 C775.73088997 544.86708423 773.877948 546.96431096 772.0188545 549.06665033 C767.64344421 553.94210751 763.17538832 558.72757117 758.6997627 563.51074213 C753.37325597 569.20355799 748.08135521 574.92749625 742.79912794 580.66137689 C740.31169236 583.36064997 737.82136117 586.05724924 735.3313545 588.75415033 C734.33134098 589.83747119 733.33134097 590.92080451 732.3313545 592.00415033 C730.3313545 594.170817 728.3313545 596.33748366 726.3313545 598.50415033 C725.83651563 599.0402392 725.34167676 599.57632807 724.83184278 600.12866205 C723.83026924 601.21367289 722.8286415 602.29863371 721.82695997 603.38354486 C719.35059178 606.0658079 716.87512386 608.74888967 714.401667 611.43383783 C709.04423037 617.24715074 703.66783576 623.04188354 698.2688545 628.81665033 C693.16024576 634.28160889 688.08634725 639.77614216 683.03838575 645.29711908 C678.65927238 650.08552527 674.25102127 654.84712108 669.84746778 659.61303705 C667.84088791 661.78505475 665.83521758 663.95791106 663.82964551 666.13085932 C662.82891292 667.21508141 661.82809881 668.29922827 660.82720411 669.38330072 C658.35074124 672.06563288 655.87520178 674.74880509 653.401667 677.43383783 C648.04423037 683.24715074 642.66783576 689.04188354 637.2688545 694.81665033 C632.16024576 700.28160889 627.08634725 705.77614216 622.03838575 711.29711908 C617.65647571 716.08858333 613.24515995 720.85297444 608.83867872 725.62182611 C607.35725316 727.22610394 605.87726458 728.83169399 604.39776075 730.43774408 C599.04183449 736.24994891 593.66657986 742.04322685 588.2688545 747.81665033 C583.16024576 753.28160889 578.08634725 758.77614216 573.03838575 764.29711908 C568.65647571 769.08858333 564.24515995 773.85297444 559.83867872 778.62182611 C558.35725316 780.22610394 556.87726458 781.83169399 555.39776075 783.43774408 C550.04183449 789.24994891 544.66657986 795.04322685 539.2688545 800.81665033 C534.16024576 806.28160889 529.08634725 811.77614216 524.03838575 817.29711908 C519.65927238 822.08552527 515.25102127 826.84712108 510.84746778 831.61303705 C508.84088791 833.78505475 506.83521758 835.95791106 504.82964551 838.13085932 C503.82891292 839.21508141 502.82809881 840.29922827 501.82720411 841.38330072 C499.35074124 844.06563288 496.87520178 846.74880509 494.401667 849.43383783 C489.04423037 855.24715074 483.66783576 861.04188354 478.2688545 866.81665033 C473.16024576 872.28160889 468.08634725 877.77614216 463.03838575 883.29711908 C459.66931171 886.98108284 456.28381175 890.64985719 452.8926338 894.3134765 C450.29961989 897.11574676 447.71698709 899.92648581 445.151667 902.75415033 C435.31579132 913.57711714 426.54691496 923.08545948 410.91751802 923.88089615 C408.56613172 923.90699855 406.2143443 923.90628631 403.86292493 923.88335603 C402.55262622 923.89062324 401.24232751 923.89789044 399.89232278 923.90537786 C396.27311624 923.92474203 392.65458188 923.91325595 389.03538702 923.8964881 C385.09127674 923.8837566 381.14726618 923.90012304 377.20317018 923.91270477 C370.29649145 923.93073508 363.39000825 923.93023286 356.48332059 923.91746897 C346.21279631 923.89854021 335.94243668 923.90823366 325.67191347 923.9235105 C307.32780186 923.94983097 288.98377735 923.94756055 270.63965747 923.93311594 C254.58641051 923.92053731 238.53319547 923.91725505 222.47994459 923.92322916 C221.41502394 923.92361108 220.35010329 923.92399301 219.25291232 923.92438651 C214.93003354 923.9259432 210.60715477 923.92753521 206.28427603 923.92918533 C165.73377732 923.94447974 125.18333407 923.93061395 84.63284393 923.90370084 C48.60751305 923.87997288 12.58227054 923.88209602 -23.44305956 923.9060058 C-63.91947087 923.93277995 -104.39583317 923.94339506 -144.87225211 923.92794448 C-149.18724659 923.9263409 -153.50224109 923.9247767 -157.81723559 923.92322916 C-158.87969438 923.92283377 -159.94215317 923.92243838 -161.03680768 923.92203102 C-177.07982102 923.91634406 -193.12279893 923.92299427 -209.16580737 923.93562692 C-227.40775152 923.94991947 -245.64959498 923.94635708 -263.89152658 923.9192232 C-274.10046308 923.90453882 -284.3091815 923.90358748 -294.51811236 923.92245408 C-301.33801099 923.93366745 -308.15773482 923.92668573 -314.97760755 923.90493023 C-318.86287981 923.89304055 -322.74771891 923.88895961 -326.63297749 923.90696014 C-330.82241657 923.92617181 -335.01079749 923.90659147 -339.20021594 923.88335603 C-340.40060759 923.89506187 -341.60099925 923.9067677 -342.83776641 923.91882825 C-353.51480628 923.80030397 -363.07547383 920.7612808 -370.9186455 913.27758783 C-379.46024193 903.40136696 -381.67813915 893.06496607 -380.88934863 880.34155267 C-379.77633039 869.81466561 -373.14525404 862.81167833 -366.03241503 855.64624017 C-364.06818097 853.64121643 -362.215239 851.54398971 -360.3561455 849.44165033 C-355.98073521 844.56619315 -351.51267932 839.78072949 -347.0370537 834.99755853 C-341.71054697 829.30474267 -336.41864621 823.58080441 -331.13641894 817.84692377 C-328.64898336 815.1476507 -326.15865217 812.45105142 -323.6686455 809.75415033 C-322.66863199 808.67082947 -321.66863198 807.58749615 -320.6686455 806.50415033 C-318.6686455 804.33748366 -316.6686455 802.170817 -314.6686455 800.00415033 C-314.17380663 799.46806146 -313.67896777 798.9319726 -313.16913378 798.37963861 C-312.16756024 797.29462777 -311.1659325 796.20966695 -310.16425097 795.1247558 C-307.68788278 792.44249276 -305.21241486 789.75941099 -302.738958 787.07446283 C-297.38152137 781.26114992 -292.00512676 775.46641712 -286.6061455 769.69165033 C-281.49753676 764.22669177 -276.42363825 758.73215851 -271.37567675 753.21118158 C-266.99656338 748.42277539 -262.58831227 743.66117958 -258.18475878 738.89526361 C-256.17817891 736.72324591 -254.17250858 734.5503896 -252.16693652 732.37744135 C-251.16620392 731.29321925 -250.16538981 730.20907239 -249.16449511 729.12499994 C-246.68803224 726.44266778 -244.21249278 723.75949557 -241.738958 721.07446283 C-235.79573162 714.62568205 -229.83050129 708.19851521 -223.82733691 701.80541986 C-220.49350282 698.24515916 -217.20899046 694.64440241 -213.9486748 691.0166015 C-212.74334345 689.67585817 -212.74334345 689.67585817 -211.51366198 688.30802912 C-210.90480654 687.63024912 -210.2959511 686.95246912 -209.6686455 686.25415033 C-210.75752881 686.25333318 -210.75752881 686.25333318 -211.86840975 686.25249952 C-229.57293167 686.23749929 -247.27717526 686.19492186 -264.98155367 686.12205976 C-273.54345801 686.08748087 -282.10520253 686.06206359 -290.66718066 686.05859369 C-298.13420916 686.05554388 -305.60095251 686.03491744 -313.06787097 685.99362576 C-317.01765226 685.97238578 -320.96702909 685.95964835 -324.91686785 685.96799654 C-328.64354909 685.97559439 -332.36941475 685.95948505 -336.09594691 685.92609018 C-338.09747933 685.91406621 -340.099113 685.92637068 -342.10063708 685.93971246 C-353.10358775 685.80180595 -362.807977 683.01651736 -370.9186455 675.27758783 C-379.46024193 665.40136696 -381.67813915 655.06496607 -380.88934863 642.34155267 C-379.77608358 631.81233123 -373.14230753 624.80872485 -366.0280205 617.64184564 C-364.08581064 615.65917308 -362.25537415 613.58438467 -360.4186455 611.50415033 C-355.82186063 606.38107882 -351.10915435 601.37012794 -346.39496386 596.35546869 C-340.44565709 590.02535868 -334.551151 583.64627391 -328.6686455 577.25415033 C-321.76564507 569.7579414 -314.83853289 562.28535117 -307.88007128 554.84057611 C-303.63866869 550.30030232 -299.41921962 545.74042218 -295.20990527 541.1704101 C-291.35984501 536.99404114 -287.48575812 532.84056361 -283.6061455 528.69165033 C-279.43742948 524.23293667 -275.28694775 519.75948832 -271.1686455 515.25415033 C-266.45876835 510.10164155 -261.70222785 504.99447285 -256.93475878 499.89526361 C-251.15150555 493.70716684 -245.40685777 487.48398989 -239.6686455 481.25415033 C-237.71086754 479.12863771 -235.75255523 477.00361994 -233.7936455 474.87915033 C-233.3094414 474.35369623 -232.8252373 473.82824213 -232.32636034 473.28686517 C-229.54417383 470.27184448 -226.74928489 467.26934126 -223.942083 464.27758783 C-223.31414843 463.60775873 -222.68621386 462.93792963 -222.03925097 462.24780267 C-220.82374354 460.95234018 -219.6067052 459.65831179 -218.38788378 458.36596674 C-217.83084765 457.77219232 -217.27381152 457.17841791 -216.6998955 456.56665033 C-216.21069628 456.04715814 -215.72149706 455.52766596 -215.21747363 454.99243158 C-213.27799975 452.81572067 -211.48384708 450.53494046 -209.6686455 448.25415033 C-210.3945677 448.2587593 -211.12048991 448.26336826 -211.86840975 448.26811689 C-229.5727305 448.37878056 -247.27696282 448.46139621 -264.98155367 448.51321119 C-273.54355609 448.53893782 -282.10532693 448.57398156 -290.66718066 448.6313476 C-298.1340791 448.68135316 -305.60080973 448.71348158 -313.06787097 448.7245928 C-317.01774808 448.73108275 -320.96714532 448.74621826 -324.91686785 448.78280061 C-328.64340416 448.81703238 -332.36926829 448.82714945 -336.09594691 448.81968874 C-338.09759809 448.82169529 -340.09917801 448.84844695 -342.10063708 448.87625116 C-353.12045917 448.81415266 -362.79896137 446.02511977 -370.9186455 438.27758783 C-379.46024193 428.40136696 -381.67813915 418.06496607 -380.88934863 405.34155267 C-379.77608358 394.81233123 -373.14230753 387.80872485 -366.0280205 380.64184564 C-364.08581064 378.65917308 -362.25537415 376.58438467 -360.4186455 374.50415033 C-355.80019568 369.35598583 -351.06213105 364.32339095 -346.32465136 359.28515619 C-341.6218139 354.28069618 -336.96517261 349.23796023 -332.332708 344.16821283 C-325.13809366 336.29844407 -317.8878668 328.48082247 -310.6061455 320.69165033 C-305.49504939 315.22398232 -300.41899386 309.72642905 -295.36786425 304.20336908 C-288.15767431 296.32537573 -280.8992029 288.49294856 -273.6061455 280.69165033 C-268.49504939 275.22398232 -263.41899386 269.72642905 -258.36786425 264.20336908 C-251.15767431 256.32537573 -243.8992029 248.49294856 -236.6061455 240.69165033 C-231.49756084 235.22666897 -226.42363853 229.73215881 -221.37567675 224.21118158 C-216.99376671 219.41971734 -212.58245095 214.65532622 -208.17596972 209.88647455 C-206.69454416 208.28219672 -205.21455558 206.67660668 -203.73505175 205.07055658 C-198.37912549 199.25835175 -193.00387086 193.46507382 -187.6061455 187.69165033 C-182.4950253 182.22400512 -177.41899358 176.72642874 -172.36786425 171.20336908 C-165.15767431 163.32537573 -157.8992029 155.49294856 -150.6061455 147.69165033 C-145.49504939 142.22398232 -140.41899386 136.72642905 -135.36786425 131.20336908 C-128.15767431 123.32537573 -120.8992029 115.49294856 -113.6061455 107.69165033 C-108.49504939 102.22398232 -103.41899386 96.72642905 -98.36786425 91.20336908 C-91.15767431 83.32537573 -83.8992029 75.49294856 -76.6061455 67.69165033 C-71.49504939 62.22398232 -66.41899386 56.72642905 -61.36786425 51.20336908 C-53.57056512 42.68388884 -45.72901508 34.20509224 -37.81879199 25.79028314 C-35.05983126 22.8491233 -32.33224948 19.89307524 -29.68817675 16.84790033 C-21.66713826 7.6604947 -12.8109032 0.01079693 0 0 Z M7.3313545 85.25415033 C6.09346347 86.68082072 4.8424587 88.09650337 3.5657295 89.48852533 C2.76618848 90.4253515 2.76618848 90.4253515 1.95049512 91.38110346 C-1.05769221 94.86102101 -4.25257766 98.16844417 -7.4186455 101.50415033 C-13.00833954 107.41795917 -18.55325752 113.36546156 -24.03973925 119.37524408 C-31.21867375 127.23687072 -38.46076508 135.0396094 -45.7311455 142.81665033 C-50.84224161 148.28431834 -55.91829714 153.78187162 -60.96942675 159.30493158 C-68.17961669 167.18292493 -75.4380881 175.0153521 -82.7311455 182.81665033 C-87.84224161 188.28431834 -92.91829714 193.78187162 -97.96942675 199.30493158 C-105.17961669 207.18292493 -112.4380881 215.0153521 -119.7311455 222.81665033 C-124.84224161 228.28431834 -129.91829714 233.78187162 -134.96942675 239.30493158 C-142.17961669 247.18292493 -149.4380881 255.0153521 -156.7311455 262.81665033 C-161.84224161 268.28431834 -166.91829714 273.78187162 -171.96942675 279.30493158 C-179.17961669 287.18292493 -186.4380881 295.0153521 -193.7311455 302.81665033 C-198.84224161 308.28431834 -203.91829714 313.78187162 -208.96942675 319.30493158 C-216.17961719 327.18292547 -223.43812227 335.01531947 -230.7311455 342.81665033 C-235.84575606 348.28851609 -240.9308507 353.78537507 -245.9811455 359.31665033 C-247.91212767 361.42725875 -249.8489948 363.53122667 -251.7936455 365.62915033 C-252.30580615 366.18320551 -252.81796679 366.73726068 -253.34564745 367.30810541 C-254.33443643 368.37744225 -255.32508997 369.44505873 -256.31781542 370.51074213 C-258.65106887 372.57223277 -258.65106887 372.57223277 -259.6686455 375.25415033 C-258.58320295 375.25373397 -257.4977604 375.2533176 -256.37942564 375.25288862 C-244.16636431 375.24841889 -231.95330302 375.24582552 -219.74024101 375.24405812 C-219.0716332 375.24396133 -218.40302539 375.24386454 -217.71415675 375.24376482 C-217.03617055 375.24366767 -216.35818435 375.24357053 -215.65965311 375.24347045 C-211.432068 375.24283499 -207.20448303 375.24194316 -202.976898 375.24086947 C-167.70340133 375.23194866 -132.42996514 375.24029206 -97.15649951 375.29168695 C-95.91587388 375.29349393 -94.67524826 375.2953009 -93.39702792 375.29716264 C-86.95729995 375.30659252 -80.51757219 375.31616405 -74.0778445 375.32578629 C-71.42923781 375.32974183 -68.78063111 375.33369519 -66.13202441 375.33764642 C-65.47158039 375.33863175 -64.81113637 375.33961707 -64.1306789 375.34063225 C-31.08277821 375.38985232 1.96508531 375.42900306 35.01302564 375.43386835 C35.7302826 375.43397791 36.44753955 375.43408748 37.18653156 375.43420037 C52.56639464 375.4364722 67.94625678 375.43640869 83.32611977 375.43369 C90.74298509 375.43239213 98.15985042 375.43162938 105.57671583 375.43115228 C106.68174782 375.43106747 106.68174782 375.43106747 107.80910369 375.43098095 C132.00900334 375.42938118 156.20869836 375.46420222 180.40853714 375.51613841 C205.59930133 375.57001053 230.78984187 375.58796211 255.98065492 375.56047912 C259.52810473 375.55662472 263.07555482 375.55317893 266.62300527 375.54998201 C267.32048767 375.54934051 268.01797006 375.54869902 268.73658829 375.54803808 C279.8945142 375.5388237 291.05203183 375.56723658 302.20986499 375.61034536 C313.34664868 375.65257995 324.48287897 375.65412204 335.61972942 375.61649569 C341.63554297 375.5973575 347.64996802 375.59606924 353.66566122 375.64278597 C359.16921857 375.68514299 364.67028992 375.67672971 370.17377392 375.62810598 C372.16053926 375.61946517 374.14749158 375.62934266 376.13404193 375.65982016 C388.22507831 376.05120575 388.22507831 376.05120575 398.44132059 370.42780595 C400.58330576 368.16241412 402.47001803 365.75276959 404.3313545 363.25415033 C405.55509282 361.85415602 406.78706977 360.46122004 408.0344795 359.08227533 C408.57653028 358.44870111 409.11858106 357.81512689 409.67705762 357.16235346 C412.70112505 353.67414345 415.90377718 350.35198265 419.0813545 347.00415033 C424.67104854 341.09034149 430.21596652 335.1428391 435.70244825 329.13305658 C442.88138275 321.27142994 450.12347408 313.46869126 457.3938545 305.69165033 C462.50495061 300.22398232 467.58100614 294.72642905 472.63213575 289.20336908 C479.84232569 281.32537573 487.1007971 273.49294856 494.3938545 265.69165033 C499.50495061 260.22398232 504.58100614 254.72642905 509.63213575 249.20336908 C516.84232569 241.32537573 524.1007971 233.49294856 531.3938545 225.69165033 C536.50495061 220.22398232 541.58100614 214.72642905 546.63213575 209.20336908 C553.84232569 201.32537573 561.1007971 193.49294856 568.3938545 185.69165033 C573.50495061 180.22398232 578.58100614 174.72642905 583.63213575 169.20336908 C590.84232569 161.32537573 598.1007971 153.49294856 605.3938545 145.69165033 C610.50495061 140.22398232 615.58100614 134.72642905 620.63213575 129.20336908 C627.84232618 121.32537519 635.10083127 113.49298119 642.3938545 105.69165033 C647.50846506 100.21978457 652.5935597 94.72292559 657.6438545 89.19165033 C659.57483667 87.08104191 661.5117038 84.97707399 663.4563545 82.87915033 C664.22459547 82.04806757 664.22459547 82.04806757 665.00835645 81.20019525 C665.99714543 80.13085841 666.98779897 79.06324193 667.98052442 77.99755853 C670.31377787 75.9360679 670.31377787 75.9360679 671.3313545 73.25415033 C609.34115519 73.04847425 547.35091646 72.85768073 485.36046827 72.74603266 C484.44297608 72.74437597 483.52548388 72.74271929 482.5801889 72.7410124 C462.64056288 72.70509742 442.70093325 72.67185525 422.76129822 72.64136638 C412.9828917 72.62639835 403.20448616 72.6108397 393.42608106 72.59497064 C392.45301273 72.59340153 391.47994441 72.59183243 390.47738916 72.59021577 C358.93794867 72.53908043 327.39876618 72.44894561 295.85948199 72.33858368 C263.44847083 72.22537742 231.03760245 72.15152159 198.62639693 72.12717045 C194.04844754 72.1237126 189.47049865 72.11980496 184.89254987 72.11562341 C183.99154484 72.11481434 183.0905398 72.11400526 182.16223158 72.11317167 C167.65899747 72.0989915 153.15620488 72.04333674 138.65315082 71.97216592 C124.07223213 71.90149833 109.49175108 71.8745394 94.91066715 71.8921338 C86.24759863 71.90126048 77.58613196 71.87693825 68.92335275 71.80457981 C63.13357363 71.75952385 57.34484127 71.75822289 51.55498939 71.79216857 C48.25688202 71.81026208 44.96240165 71.80297887 41.66449854 71.75555214 C26.07219933 71.54435599 16.5593479 71.94630081 7.3313545 85.25415033 Z M544.3313545 319.25415033 C543.15169928 320.59746302 541.96864433 321.93780638 540.78057325 323.27368158 C540.21129102 323.93448725 539.6420088 324.59529291 539.05547559 325.27612299 C536.17435141 328.58154187 533.15527598 331.755308 530.1438545 334.94165033 C528.81793158 336.35012608 527.49241569 337.75898511 526.167292 339.16821283 C525.19227735 340.20510248 525.19227735 340.20510248 524.19756544 341.26293939 C521.53887793 344.09970749 518.90154342 346.9557683 516.2688545 349.81665033 C511.97554653 354.48058276 507.66017943 359.12316338 503.3313545 363.75415033 C496.96958332 370.56144563 490.64367492 377.40101531 484.3313545 384.25415033 C477.4288611 391.74802201 470.5036325 399.21950145 463.54717481 406.66333002 C459.75442527 410.72385228 455.97460823 414.79589365 452.2063545 418.87915033 C451.72126417 419.40259027 451.23617383 419.92603021 450.7363838 420.46533197 C448.20635702 423.19961779 445.7035943 425.95363952 443.23369825 428.74243158 C435.5412128 437.371962 427.28291917 445.98695289 415.17872664 447.52825844 C412.83509847 447.62525137 410.50844592 447.63316575 408.16296136 447.60539144 C406.82193174 447.60772357 406.82193174 447.60772357 405.4538106 447.6101028 C402.46045496 447.61168703 399.46763018 447.59182694 396.47434461 447.57212824 C394.30563631 447.56897365 392.13692569 447.56717427 389.96821517 447.5666132 C385.25417076 447.56245903 380.54028372 447.54870212 375.82628477 447.52764314 C368.15618363 447.49339829 360.48612294 447.47975819 352.81595838 447.46856683 C342.40322282 447.45198276 331.99053673 447.42702621 321.57783427 447.39615463 C303.99944454 447.34427949 286.42112013 447.32360986 268.84266164 447.31346602 C265.09988409 447.31125964 261.35710675 447.30874948 257.6143294 447.30624807 C256.86825912 447.30575069 256.12218885 447.30525331 255.35351039 447.30474085 C253.84169138 447.30373163 252.32987238 447.30272009 250.81805337 447.30170626 C249.30066501 447.30069264 247.78327664 447.29968795 246.26588826 447.29869215 C228.37746714 447.28693504 210.48905382 447.26988349 192.60064161 447.2485351 C191.42676288 447.24715071 191.42676288 447.24715071 190.22916944 447.24573835 C164.84748002 447.21557178 139.46596355 447.1540557 114.08437005 447.07946426 C87.98037981 447.002979 61.87660025 446.96652419 35.77249451 446.97718258 C32.08540694 446.97865042 28.3983194 446.97961772 24.71123159 446.98025697 C23.62279634 446.98045883 23.62279634 446.98045883 22.51237251 446.98066477 C10.8397691 446.98156759 -0.83230532 446.93960768 -12.50474555 446.88100688 C-24.23718427 446.82289336 -35.96899277 446.80878931 -47.70154611 446.83684319 C-54.05682887 446.85067667 -60.41051865 446.84486718 -66.76558459 446.78668398 C-72.58508854 446.7338019 -78.40185773 446.73631228 -84.22139307 446.78265763 C-86.32500469 446.78964632 -88.42880307 446.77636401 -90.53212283 446.74063366 C-102.13398886 446.19561617 -102.13398886 446.19561617 -112.28632641 450.88152224 C-115.13228812 453.73780775 -117.39660105 456.92616363 -119.6686455 460.25415033 C-120.89170274 461.62246866 -122.13532349 462.97343666 -123.4186455 464.28540033 C-123.95811816 464.86161127 -124.49759081 465.43782221 -125.05341113 466.03149408 C-125.85295214 466.88420892 -125.85295214 466.88420892 -126.6686455 467.75415033 C-130.85898337 472.23300326 -135.03074051 476.72679545 -139.1686455 481.25415033 C-143.87852266 486.40665911 -148.63506315 491.51382781 -153.40253222 496.61303705 C-159.18578545 502.80113382 -164.93043323 509.02431077 -170.6686455 515.25415033 C-177.5711389 522.74802201 -184.4963675 530.21950145 -191.45282519 537.66333002 C-197.21815937 543.83570379 -202.94650293 550.04175726 -208.6686455 556.25415033 C-215.5711389 563.74802201 -222.4963675 571.21950145 -229.45282519 578.66333002 C-234.22058295 583.76769726 -238.96520004 588.89286448 -243.69598925 594.03149408 C-245.80576098 596.32232567 -247.92433857 598.60467852 -250.04755175 600.88305658 C-250.87778857 601.77613519 -250.87778857 601.77613519 -251.72479784 602.6872558 C-252.78971727 603.8324984 -253.85637315 604.97612948 -254.92499316 606.11791986 C-257.60693322 608.9611759 -257.60693322 608.9611759 -259.6686455 612.25415033 C-197.56899471 612.45981621 -135.46930458 612.65061112 -73.36940539 612.76226801 C-72.4503654 612.76392469 -71.53132541 612.76558138 -70.58443573 612.76728826 C-50.61140857 612.80320283 -30.63837779 612.83644506 -10.66534163 612.86693428 C-0.87062506 612.88190237 8.92409053 612.89746101 18.71880567 612.91333002 C19.6934996 612.91489913 20.66819353 612.91646824 21.67242364 612.91808489 C53.26735544 612.96922473 84.86202977 613.05936291 116.45680558 613.16971698 C148.92350761 613.28291059 181.39006714 613.35677614 213.85696316 613.38113021 C218.44226059 613.38458809 223.02755754 613.38849573 227.61285436 613.39267725 C228.51530997 613.39348632 229.41776558 613.3942954 230.34756833 613.39512899 C244.87703479 613.40931188 259.40606076 613.46497397 273.93534756 613.53613474 C288.54089336 613.60678427 303.14600232 613.63376579 317.75171302 613.61616686 C326.43054288 613.60703676 335.10777439 613.63139296 343.78631571 613.70372085 C349.58532513 613.74874984 355.38328911 613.7500967 361.18237097 613.71613209 C364.48656941 613.69802451 367.78714321 613.70536468 371.09113882 613.75274852 C384.90231712 614.57071954 384.90231712 614.57071954 397.24579024 609.62785572 C400.10141635 606.81748641 402.20985111 603.6495564 404.3313545 600.25415033 C405.54803059 598.88015494 406.79072713 597.52767812 408.0813545 596.22290033 C408.62082716 595.64668939 409.16029981 595.07047846 409.71612012 594.47680658 C410.24914747 593.90833002 410.78217481 593.33985346 411.3313545 592.75415033 C415.52169237 588.2752974 419.6934495 583.78150521 423.8313545 579.25415033 C428.54123165 574.10164155 433.29777215 568.99447285 438.06524122 563.89526361 C443.84849445 557.70716684 449.59314223 551.48398989 455.3313545 545.25415033 C462.2338479 537.76027865 469.15907649 530.28879921 476.11553419 522.84497064 C481.3880462 517.20021288 486.63011811 511.52787053 491.86358106 505.84692377 C494.8528204 502.60311181 497.84588465 499.36282779 500.83843458 496.12207025 C503.3027975 493.45297687 505.76588637 490.78273516 508.22588575 488.10961908 C514.3672418 481.43997434 520.55121997 474.8120325 526.75762403 468.2028808 C532.65295037 461.92087664 538.49760941 455.59328924 544.3313545 449.25415033 C551.23295428 441.75946242 558.15908369 434.28879151 565.11553419 426.84497064 C570.88086837 420.67259687 576.60921193 414.4665434 582.3313545 408.25415033 C589.2338479 400.76027865 596.15907649 393.28879921 603.11553419 385.84497064 C608.88086837 379.67259687 614.60921193 373.4665434 620.3313545 367.25415033 C627.2338479 359.76027865 634.15907649 352.28879921 641.11553419 344.84497064 C645.88329195 339.7406034 650.62790904 334.61543618 655.35869825 329.47680658 C657.46846998 327.18597499 659.58704757 324.90362214 661.71026075 322.62524408 C662.26375196 322.02985834 662.81724317 321.4344726 663.38750684 320.82104486 C664.45242627 319.67580227 665.51908215 318.53217118 666.58770216 317.3903808 C669.26964222 314.54712477 669.26964222 314.54712477 671.3313545 311.25415033 C655.95412413 311.06700183 640.57694638 310.92606521 625.19883192 310.83965296 C618.05788503 310.79845744 610.91764704 310.74232799 603.77715528 310.65063471 C597.55109327 310.57072223 591.32554476 310.51924406 585.09898412 310.50144237 C581.80376181 310.49104052 578.51034485 310.46248407 575.21550977 310.40830988 C571.5305867 310.35013722 567.8486949 310.34224169 564.16338575 310.34594721 C563.07941007 310.317185 561.99543439 310.28842279 560.87861097 310.258789 C552.74104556 310.3471946 549.31089182 313.00122626 544.3313545 319.25415033 Z M545.3313545 555.25415033 C544.68384229 555.96804926 544.03633008 556.68194818 543.3691963 557.41748041 C542.61376539 558.30536249 542.61376539 558.30536249 541.84307325 559.21118158 C538.3797238 563.2226454 534.78361694 567.09041351 531.1438545 570.94165033 C529.82054644 572.34753203 528.49763478 573.75378694 527.1751045 575.16040033 C526.20057325 576.19680658 526.20057325 576.19680658 525.2063545 577.25415033 C521.0365066 581.70198809 516.91152041 586.1913203 512.78301466 590.67749017 C510.30189044 593.37225979 507.81636334 596.06296347 505.3313545 598.75415033 C504.33133423 599.83746495 503.33133421 600.92079827 502.3313545 602.00415033 C500.3313545 604.170817 498.3313545 606.33748366 496.3313545 608.50415033 C495.83651563 609.0402392 495.34167676 609.57632807 494.83184278 610.12866205 C493.83026924 611.21367289 492.8286415 612.29863371 491.82695997 613.38354486 C489.35059178 616.0658079 486.87512386 618.74888967 484.401667 621.43383783 C479.04423037 627.24715074 473.66783576 633.04188354 468.2688545 638.81665033 C464.06046318 643.31859701 459.86621771 647.83230549 455.7063545 652.37915033 C454.83237012 653.33434564 453.95838575 654.28954096 453.057917 655.27368158 C452.61737989 655.75530756 452.17684278 656.23693353 451.72295606 656.73315424 C448.17436287 660.61170434 444.6241368 664.48827698 441.042292 668.33618158 C439.47022631 670.02830416 437.90755069 671.72945222 436.370417 673.45336908 C429.82741075 680.53394626 420.80784247 684.61844074 411.19006736 685.43621934 C408.86435637 685.50249872 406.54643643 685.50851092 404.21984422 685.49072355 C402.88804605 685.49267309 402.88804605 685.49267309 401.52934286 685.49466202 C398.557056 685.49660651 395.58500168 685.48427759 392.61274183 685.4720611 C390.45910624 685.47061895 388.30546989 685.47008166 386.15183383 685.47037113 C381.4708176 685.46905494 376.7898694 685.46135931 372.10886991 685.44881243 C364.49254608 685.42842449 356.87624493 685.4217746 349.25989759 685.41680902 C338.92061543 685.40893187 328.58135372 685.39607031 318.24208248 685.37920621 C300.78998599 685.35094905 283.3379311 685.34456185 265.88581416 685.34568424 C262.17019109 685.34589472 258.45456802 685.34590101 254.73894495 685.34592295 C253.24115336 685.3459357 251.74336178 685.34594898 250.24557019 685.34596277 C249.5019061 685.34596901 248.75824201 685.34597524 247.99204264 685.34598166 C245.73049865 685.34600733 243.46895465 685.34605346 241.20741065 685.346101 C224.20486053 685.34637295 207.20231189 685.34349217 190.1997627 685.33789057 C189.42289474 685.3376428 188.64602677 685.33739504 187.84561736 685.33713977 C162.64400263 685.32892388 137.44247833 685.29656361 112.24090101 685.25382285 C86.32443533 685.21003938 60.40810583 685.1961714 34.49160893 685.21783554 C30.83198919 685.22086813 27.17236927 685.22352981 23.51274908 685.22595018 C22.79252334 685.22643352 22.07229759 685.22691687 21.33024683 685.22741486 C9.7391886 685.23425624 -1.85158983 685.20907557 -13.44258025 685.17154178 C-25.08980557 685.13442409 -36.73660741 685.13028676 -48.3838697 685.15783412 C-54.6940739 685.17174082 -61.00338513 685.17086837 -67.31349719 685.13084215 C-73.08935137 685.09450469 -78.8636325 685.09953069 -84.63946206 685.13756704 C-86.72955511 685.14399243 -88.81976186 685.13516434 -90.90970849 685.10960443 C-101.81490404 684.66946045 -101.81490404 684.66946045 -111.82055354 688.18814355 C-114.1021049 690.42730511 -115.87134825 692.6200388 -117.6686455 695.25415033 C-118.85831805 696.62774633 -120.06060482 697.99064843 -121.28192675 699.33618158 C-121.84218554 699.98796381 -122.40244433 700.63974603 -122.97968066 701.31127924 C-125.84555997 704.60799325 -128.8561618 707.76736413 -131.8561455 710.94165033 C-133.17945356 712.34753203 -134.50236522 713.75378694 -135.8248955 715.16040033 C-136.474583 715.85133783 -137.1242705 716.54227533 -137.7936455 717.25415033 C-141.9634934 721.70198809 -146.08847959 726.1913203 -150.21698534 730.67749017 C-152.69810956 733.37225979 -155.18363666 736.06296347 -157.6686455 738.75415033 C-158.66866577 739.83746495 -159.66866579 740.92079827 -160.6686455 742.00415033 C-162.6686455 744.170817 -164.6686455 746.33748366 -166.6686455 748.50415033 C-167.16348437 749.0402392 -167.65832324 749.57632807 -168.16815722 750.12866205 C-169.16973076 751.21367289 -170.1713585 752.29863371 -171.17304003 753.38354486 C-173.64940822 756.0658079 -176.12487614 758.74888967 -178.598333 761.43383783 C-183.95576963 767.24715074 -189.33216424 773.04188354 -194.7311455 778.81665033 C-199.83975424 784.28160889 -204.91365275 789.77614216 -209.96161425 795.29711908 C-214.34072762 800.08552527 -218.74897873 804.84712108 -223.15253222 809.61303705 C-225.65878654 812.32592618 -228.16366695 815.04008325 -230.6686455 817.75415033 C-233.67967422 821.01650718 -236.69100076 824.27858625 -239.70380175 827.53930658 C-242.19211887 830.2324498 -244.67796315 832.92786233 -247.16327441 835.62377924 C-248.72888231 837.31938897 -250.29826656 839.01145266 -251.86786425 840.70336908 C-252.88487871 841.80354874 -253.90180894 842.90380625 -254.9186455 844.00415033 C-255.39696826 844.5179223 -255.87529101 845.03169428 -256.36810839 845.5610351 C-258.67000825 847.60020599 -258.67000825 847.60020599 -259.6686455 850.25415033 C-197.56899471 850.45981621 -135.46930458 850.65061112 -73.36940539 850.76226801 C-72.4503654 850.76392469 -71.53132541 850.76558138 -70.58443573 850.76728826 C-50.61140857 850.80320283 -30.63837779 850.83644506 -10.66534163 850.86693428 C-0.87062506 850.88190237 8.92409053 850.89746101 18.71880567 850.91333002 C19.6934996 850.91489913 20.66819353 850.91646824 21.67242364 850.91808489 C53.26735544 850.96922473 84.86202977 851.05936291 116.45680558 851.16971698 C148.92350761 851.28291059 181.39006714 851.35677614 213.85696316 851.38113021 C218.44226059 851.38458809 223.02755754 851.38849573 227.61285436 851.39267725 C228.51530997 851.39348632 229.41776558 851.3942954 230.34756833 851.39512899 C244.87703479 851.40931188 259.40606076 851.46497397 273.93534756 851.53613474 C288.54089336 851.60678427 303.14600232 851.63376579 317.75171302 851.61616686 C326.43054288 851.60703676 335.10777439 851.63139296 343.78631571 851.70372085 C349.58532513 851.74874984 355.38328911 851.7500967 361.18237097 851.71613209 C364.48656941 851.69802451 367.78714321 851.70536468 371.09113882 851.75274852 C384.91419215 852.57018134 384.91419215 852.57018134 397.26240706 847.6112389 C400.11334822 844.80529806 402.2273587 841.6537854 404.3313545 838.25415033 C405.39053863 837.03815817 406.47777938 835.84513497 407.60869825 834.69555658 C409.50470711 832.6436351 411.40052971 830.5915424 413.29619825 828.53930658 C413.79748243 827.9967724 414.29876661 827.45423822 414.81524122 826.89526361 C417.32149554 824.18237447 419.82635895 821.46820174 422.3313545 818.75415033 C423.33134774 817.67081076 424.33134774 816.58747743 425.3313545 815.50415033 C426.0738545 814.69977533 426.0738545 814.69977533 426.8313545 813.87915033 C428.3313545 812.25415033 429.8313545 810.62915033 431.3313545 809.00415033 C431.82619337 808.46806146 432.32103223 807.9319726 432.83086622 807.37963861 C433.83243976 806.29462777 434.8340675 805.20966695 435.83574903 804.1247558 C438.31211722 801.44249276 440.78758514 798.75941099 443.261042 796.07446283 C448.61847863 790.26114992 453.99487324 784.46641712 459.3938545 778.69165033 C464.50246324 773.22669177 469.57636175 767.73215851 474.62432325 762.21118158 C479.00623329 757.41971734 483.41754905 752.65532622 487.82403028 747.88647455 C489.30545584 746.28219672 490.78544442 744.67660668 492.26494825 743.07055658 C497.62087451 737.25835175 502.99612914 731.46507382 508.3938545 725.69165033 C513.50246324 720.22669177 518.57636175 714.73215851 523.62432325 709.21118158 C528.00623329 704.41971734 532.41754905 699.65532622 536.82403028 694.88647455 C538.30545584 693.28219672 539.78544442 691.67660668 541.26494825 690.07055658 C546.62087451 684.25835175 551.99612914 678.46507382 557.3938545 672.69165033 C562.50246324 667.22669177 567.57636175 661.73215851 572.62432325 656.21118158 C577.00623329 651.41971734 581.41754905 646.65532622 585.82403028 641.88647455 C587.30545584 640.28219672 588.78544442 638.67660668 590.26494825 637.07055658 C595.62087451 631.25835175 600.99612914 625.46507382 606.3938545 619.69165033 C611.50246324 614.22669177 616.57636175 608.73215851 621.62432325 603.21118158 C626.00343662 598.42277539 630.41168773 593.66117958 634.81524122 588.89526361 C637.32149553 586.18237448 639.82637595 583.46821741 642.3313545 580.75415033 C645.34238322 577.49179348 648.35370976 574.22971441 651.36651075 570.96899408 C653.85482786 568.27585086 656.34067215 565.58043833 658.82598341 562.88452142 C660.39159131 561.18891169 661.96097556 559.496848 663.53057325 557.80493158 C664.5475877 556.70475192 665.56451794 555.60449441 666.5813545 554.50415033 C667.05967725 553.99037836 667.53800001 553.47660639 668.03081739 552.94726557 C670.33271725 550.90809467 670.33271725 550.90809467 671.3313545 548.25415033 C655.93677642 548.09045967 640.54226365 547.96710694 625.14701974 547.89146513 C617.99828876 547.85540576 610.85009922 547.80626573 603.70171583 547.72607416 C597.46943867 547.65619306 591.2375537 547.61111703 585.00489563 547.59553087 C581.70596513 547.5864226 578.40841479 547.56139968 575.10977972 547.51403993 C571.42246396 547.46320612 567.73747025 547.45622784 564.04986036 547.4594726 C562.9622894 547.43430567 561.87471845 547.40913873 560.7541908 547.38320917 C553.22640764 547.45486485 549.88300077 549.30082989 545.3313545 555.25415033 Z " fill="#D89C99" transform="translate(380.6686455011368,-0.2541503310203552)"/>
<path d="M0 0 C3.99408104 0.0632082 7.98810198 0.05563804 11.98259544 0.05727243 C18.68777413 0.0701807 25.39101987 0.13215875 32.09551048 0.22740793 C39.81887358 0.33686456 47.54055412 0.38435621 55.26464796 0.39500272 C63.52799149 0.40652779 71.79074863 0.45625276 80.05383301 0.52091694 C82.41700383 0.53737613 84.78013747 0.54763189 87.14334679 0.55678034 C90.87369216 0.57363279 94.60290316 0.61683299 98.33275223 0.67942667 C100.33404054 0.70769132 102.33561857 0.71248342 104.33710289 0.71626902 C115.31451953 0.94730857 125.05298199 3.73464564 133.14873314 11.45934153 C141.69032957 21.3355624 143.90822679 31.67196329 143.11943626 44.39537668 C142.00641803 54.92226375 135.37534168 61.92525103 128.26250267 69.09068918 C126.29826861 71.09571293 124.44532664 73.19293965 122.58623314 75.29527903 C118.21082285 80.17073621 113.74276696 84.95619987 109.26714134 89.73937082 C103.94063461 95.43218669 98.64873385 101.15612495 93.36650658 106.89000559 C90.879071 109.58927866 88.38873981 112.28587794 85.89873314 114.98277903 C84.89871962 116.06609988 83.89871961 117.14943321 82.89873314 118.23277903 C80.89873314 120.39944569 78.89873314 122.56611236 76.89873314 124.73277903 C76.40389427 125.26886789 75.9090554 125.80495676 75.39922142 126.35729074 C74.39764788 127.44230159 73.39602014 128.5272624 72.39433861 129.61217356 C69.91797042 132.2944366 67.4425025 134.97751837 64.96904564 137.66246653 C59.61160901 143.47577943 54.2352144 149.27051223 48.83623314 155.04527903 C43.7276244 160.51023759 38.65372589 166.00477085 33.60576439 171.52574778 C29.22665102 176.31415396 24.81839991 181.07574977 20.41484642 185.84166574 C18.40826655 188.01368344 16.40259622 190.18653976 14.39702415 192.35948801 C13.39629156 193.44371011 12.39547745 194.52785697 11.39458275 195.61192942 C8.91811988 198.29426158 6.44258042 200.97743378 3.96904564 203.66246653 C-1.38839099 209.47577943 -6.7647856 215.27051223 -12.16376686 221.04527903 C-17.2723756 226.51023759 -22.34627411 232.00477085 -27.39423561 237.52574778 C-31.77614565 242.31721202 -36.18746141 247.08160313 -40.59394264 251.85045481 C-42.0753682 253.45473263 -43.55535678 255.06032268 -45.03486061 256.66637278 C-50.39078687 262.47857761 -55.7660415 268.27185554 -61.16376686 274.04527903 C-66.2723756 279.51023759 -71.34627411 285.00477085 -76.39423561 290.52574778 C-80.77614565 295.31721202 -85.18746141 300.08160313 -89.59394264 304.85045481 C-91.0753682 306.45473263 -92.55535678 308.06032268 -94.03486061 309.66637278 C-99.39078687 315.47857761 -104.7660415 321.27185554 -110.16376686 327.04527903 C-115.2723756 332.51023759 -120.34627411 338.00477085 -125.39423561 343.52574778 C-129.77334898 348.31415396 -134.18160009 353.07574977 -138.58515358 357.84166574 C-140.59173345 360.01368344 -142.59740378 362.18653976 -144.60297585 364.35948801 C-145.60370844 365.44371011 -146.60452255 366.52785697 -147.60541725 367.61192942 C-150.08188012 370.29426158 -152.55741958 372.97743378 -155.03095436 375.66246653 C-160.38839099 381.47577943 -165.7647856 387.27051223 -171.16376686 393.04527903 C-176.2723756 398.51023759 -181.34627411 404.00477085 -186.39423561 409.52574778 C-189.76330965 413.20971154 -193.14880961 416.87848589 -196.53998756 420.5421052 C-199.13300147 423.34437545 -201.71563427 426.15511451 -204.28095436 428.98277903 C-214.11683004 439.80574584 -222.8857064 449.31408818 -238.51510334 450.10952485 C-240.86648964 450.13562725 -243.21827706 450.13491501 -245.56969643 450.11198473 C-247.53514449 450.12288554 -247.53514449 450.12288554 -249.54029858 450.13400656 C-253.15950512 450.15337072 -256.77803948 450.14188465 -260.39723434 450.1251168 C-264.34134462 450.11238529 -268.28535518 450.12875173 -272.22945118 450.14133346 C-279.13612991 450.15936378 -286.04261311 450.15886155 -292.94930077 450.14609766 C-303.21982505 450.1271689 -313.49018468 450.13686235 -323.76070789 450.1521392 C-342.1048195 450.17845967 -360.44884401 450.17618924 -378.79296389 450.16174463 C-394.84621085 450.149166 -410.89942589 450.14588374 -426.95267677 450.15185785 C-428.01759742 450.15223978 -429.08251807 450.1526217 -430.17970904 450.1530152 C-434.50258782 450.1545719 -438.82546659 450.1561639 -443.14834533 450.15781402 C-483.69884404 450.17310844 -524.24928728 450.15924264 -564.79977743 450.13232954 C-600.82510831 450.10860157 -636.85035082 450.11072471 -672.87568092 450.13463449 C-713.35209223 450.16140865 -753.82845453 450.17202376 -794.30487347 450.15657318 C-798.61986795 450.15496959 -802.93486245 450.15340539 -807.24985695 450.15185785 C-808.31231574 450.15146247 -809.37477453 450.15106708 -810.46942904 450.15065971 C-826.51244238 450.14497276 -842.55542029 450.15162296 -858.59842873 450.16425562 C-876.84037288 450.17854817 -895.08221634 450.17498578 -913.32414794 450.1478519 C-923.53308444 450.13316752 -933.74180286 450.13221618 -943.95073372 450.15108277 C-950.77063235 450.16229614 -957.59035618 450.15531442 -964.41022891 450.13355893 C-968.29550117 450.12166925 -972.18034027 450.11758831 -976.06559885 450.13558884 C-980.25503793 450.1548005 -984.44341885 450.13522016 -988.6328373 450.11198473 C-989.83322895 450.12369056 -991.03362061 450.13539639 -992.27038777 450.14745694 C-1002.94742764 450.02893266 -1012.50809519 446.98990949 -1020.35126686 439.50621653 C-1028.89286329 429.62999565 -1031.11076051 419.29359476 -1030.32196999 406.57018137 C-1029.20895175 396.04329431 -1022.5778754 389.04030702 -1015.46503639 381.87486887 C-1013.50080233 379.86984513 -1011.64786036 377.7726184 -1009.78876686 375.67027903 C-1005.41335657 370.79482184 -1000.94530068 366.00935819 -996.46967506 361.22618723 C-991.14316833 355.53337137 -985.85126757 349.8094331 -980.5690403 344.07555246 C-978.08160472 341.37627939 -975.59127353 338.67968011 -973.10126686 335.98277903 C-972.10125335 334.89945817 -971.10125334 333.81612484 -970.10126686 332.73277903 C-968.10126686 330.56611236 -966.10126686 328.39944569 -964.10126686 326.23277903 C-963.60642799 325.69669016 -963.11158913 325.16060129 -962.60175514 324.60826731 C-961.6001816 323.52325646 -960.59855386 322.43829565 -959.59687233 321.35338449 C-957.12050414 318.67112145 -954.64503622 315.98803968 -952.17157936 313.30309153 C-946.81414273 307.48977862 -941.43774812 301.69504582 -936.03876686 295.92027903 C-930.93015812 290.45532047 -925.85625961 284.9607872 -920.80829811 279.43981028 C-916.42918474 274.65140409 -912.02093363 269.88980828 -907.61738014 265.12389231 C-905.61080027 262.95187461 -903.60512994 260.77901829 -901.59955788 258.60607004 C-900.59882528 257.52184794 -899.59801117 256.43770108 -898.59711647 255.35362864 C-896.1206536 252.67129647 -893.64511414 249.98812427 -891.17157936 247.30309153 C-885.25647387 240.8847401 -879.31962537 234.48765594 -873.34784889 228.12193918 C-872.8101487 227.54750071 -872.2724485 226.97306223 -871.71845436 226.38121653 C-871.16381048 225.81882959 -870.60916659 225.25644266 -870.03771532 224.6770137 C-868.00107555 222.49848269 -868.00107555 222.49848269 -866.43296587 219.74232692 C-863.49888484 215.47224974 -860.8196003 212.21566101 -855.74642321 210.84789647 C-848.30644536 209.78636935 -840.77982637 210.05660448 -833.2851963 210.15997934 C-830.71092689 210.15518145 -828.13666271 210.14554807 -825.56242716 210.13149852 C-819.96837334 210.10874213 -814.37560938 210.12666936 -808.78170586 210.1715188 C-800.46412109 210.2380198 -792.14734628 210.2412025 -783.82954412 210.23155693 C-769.8368173 210.21711674 -755.84466262 210.25380994 -741.85210228 210.3197484 C-727.99980143 210.38485844 -714.14773893 210.42717824 -700.29528618 210.43912935 C-699.43366588 210.43988549 -698.57204558 210.44064162 -697.68431557 210.44142067 C-693.30849744 210.44514239 -688.93267909 210.44845759 -684.55686052 210.45161631 C-653.57101221 210.47471468 -622.58547507 210.54880809 -591.59980202 210.65294504 C-561.49955842 210.7539894 -531.39940001 210.83190137 -501.29902077 210.87853098 C-500.37103325 210.87997777 -499.44304574 210.88142455 -498.48693739 210.88291518 C-489.16761946 210.89741903 -479.84830088 210.91145297 -470.52898172 210.92514264 C-451.5448223 210.95304023 -432.56066844 210.984074 -413.57651711 211.01700449 C-412.70367589 211.01851468 -411.83083468 211.02002487 -410.93154374 211.02158082 C-352.65465456 211.12277094 -294.37794107 211.2972951 -236.10126686 211.48277903 C-236.10126686 211.81277903 -236.10126686 212.14277903 -236.10126686 212.48277903 C-237.75351446 212.48139634 -237.75351446 212.48139634 -239.4391408 212.47998571 C-287.97946764 212.43988959 -336.519787 212.40969142 -385.06012917 212.43004465 C-386.16229698 212.43050257 -386.16229698 212.43050257 -387.2867308 212.43096974 C-403.25511809 212.43766361 -419.22350396 212.44613532 -435.19188932 212.45643866 C-443.02268424 212.46148053 -450.85347938 212.46612951 -458.68427467 212.47057199 C-459.85316739 212.47124515 -459.85316739 212.47124515 -461.04567411 212.4719319 C-486.30773496 212.48629593 -511.569703 212.47471134 -536.83175296 212.44968261 C-562.78994403 212.42410112 -588.7480061 212.42467367 -614.70619134 212.45819521 C-618.37187438 212.46291674 -622.03755772 212.46733901 -625.70324135 212.47157907 C-626.7854391 212.47284472 -626.7854391 212.47284472 -627.88949943 212.47413594 C-639.50718687 212.48695321 -651.1246834 212.47216726 -662.742344 212.4470801 C-674.41964901 212.42245244 -686.09659562 212.42750134 -697.77388686 212.4609378 C-704.10205255 212.47818646 -710.4295273 212.48232681 -716.757658 212.45175982 C-722.54911391 212.42406961 -728.33930028 212.43308021 -734.13068408 212.47152007 C-736.22771428 212.47891817 -738.32484454 212.47274394 -740.42178279 212.45175874 C-752.76273801 211.80444883 -752.76273801 211.80444883 -763.17804146 217.29405832 C-764.19793461 218.6574279 -765.17504732 220.05411671 -766.10126686 221.48277903 C-767.26853601 222.83686845 -768.45037493 224.17865737 -769.65204811 225.50231028 C-770.22133034 226.16311594 -770.79061256 226.8239216 -771.37714577 227.50475168 C-774.258271 230.81017177 -777.27736762 233.98391403 -780.28876686 237.17027903 C-781.61207492 238.57616072 -782.93498658 239.98241564 -784.25751686 241.38902903 C-784.90720436 242.07996653 -785.55689186 242.77090403 -786.22626686 243.48277903 C-790.39611476 247.93061678 -794.52110095 252.419949 -798.6496067 256.90611887 C-801.13073092 259.60088849 -803.61625802 262.29159217 -806.10126686 264.98277903 C-807.10128713 266.06609365 -808.10128715 267.14942696 -809.10126686 268.23277903 C-811.10126686 270.39944569 -813.10126686 272.56611236 -815.10126686 274.73277903 C-815.59610573 275.26886789 -816.0909446 275.80495676 -816.60077858 276.35729074 C-817.60235212 277.44230159 -818.60397986 278.5272624 -819.60566139 279.61217356 C-822.08202958 282.2944366 -824.5574975 284.97751837 -827.03095436 287.66246653 C-832.38839099 293.47577943 -837.7647856 299.27051223 -843.16376686 305.04527903 C-848.2723756 310.51023759 -853.34627411 316.00477085 -858.39423561 321.52574778 C-862.77334898 326.31415396 -867.18160009 331.07574977 -871.58515358 335.84166574 C-874.0914079 338.55455488 -876.59628831 341.26871195 -879.10126686 343.98277903 C-882.11229558 347.24513587 -885.12362212 350.50721495 -888.13642311 353.76793528 C-888.6436692 354.3170759 -889.1509153 354.86621653 -889.67353249 355.43199778 C-891.05684718 356.92953112 -892.44037618 358.42686649 -893.82392311 359.92418528 C-896.8250734 363.17802141 -899.81539386 366.44176048 -902.80610085 369.70519114 C-903.31596283 370.26147951 -903.82582481 370.81776789 -904.35113716 371.39091349 C-905.60121833 372.7548339 -906.85124779 374.1188017 -908.10126686 375.48277903 C-846.06869496 375.65415077 -784.03609573 375.81314878 -722.00335121 375.90621042 C-721.08544485 375.90759099 -720.16753848 375.90897156 -719.22181678 375.91039397 C-699.27388564 375.94032211 -679.32595199 375.96802406 -659.3780146 375.99343232 C-649.59574201 376.00590583 -639.8134701 376.01887135 -630.0311985 376.03209543 C-628.57100759 376.03405682 -628.57100759 376.03405682 -627.08131788 376.03605783 C-595.52095039 376.07868161 -563.96076178 376.15380224 -532.40050269 376.24575123 C-499.9718685 376.34005873 -467.54333332 376.40162913 -435.11456432 376.42192893 C-430.53565279 376.42481053 -425.95674161 376.4280669 -421.37783051 376.43155146 C-420.4766232 376.43222569 -419.57541589 376.43289992 -418.64689927 376.43359458 C-404.1319783 376.44541802 -389.61736323 376.49181507 -375.10256708 376.55109937 C-360.51500681 376.60994455 -345.92775021 376.63246586 -331.34007538 376.6177928 C-322.66990425 376.61017899 -314.0008434 376.63053146 -305.33087248 376.69075446 C-299.54015794 376.72823424 -293.75017096 376.72943122 -287.95940632 376.70109716 C-284.65863624 376.68598634 -281.36039188 376.69219759 -278.05976135 376.73161085 C-264.72874932 377.6279001 -264.72874932 377.6279001 -252.64361179 373.31095433 C-250.3483887 370.80010764 -248.75333394 368.44016614 -247.10126686 365.48277903 C-245.95191547 364.17209039 -244.77231269 362.88639431 -243.54657936 361.64684153 C-243.00050026 361.06402414 -242.45442116 360.48120676 -241.8917942 359.88072824 C-241.34217018 359.295655 -240.79254616 358.71058176 -240.22626686 358.10777903 C-235.0526381 352.58244958 -229.91597169 347.02609455 -224.80829811 341.43981028 C-220.42638807 336.64834603 -216.01507231 331.88395492 -211.60859108 327.11510324 C-210.12716552 325.51082542 -208.64717694 323.90523537 -207.16767311 322.29918528 C-201.81174685 316.48698044 -196.43649222 310.69370251 -191.03876686 304.92027903 C-185.93015812 299.45532047 -180.85625961 293.9607872 -175.80829811 288.43981028 C-171.42638807 283.64834603 -167.01507231 278.88395492 -162.60859108 274.11510324 C-161.12716552 272.51082542 -159.64717694 270.90523537 -158.16767311 269.29918528 C-152.81174685 263.48698044 -147.43649222 257.69370251 -142.03876686 251.92027903 C-136.93015812 246.45532047 -131.85625961 240.9607872 -126.80829811 235.43981028 C-122.42638807 230.64834603 -118.01507231 225.88395492 -113.60859108 221.11510324 C-112.12716552 219.51082542 -110.64717694 217.90523537 -109.16767311 216.29918528 C-103.81174685 210.48698044 -98.43649222 204.69370251 -93.03876686 198.92027903 C-87.93015812 193.45532047 -82.85625961 187.9607872 -77.80829811 182.43981028 C-73.42638807 177.64834603 -69.01507231 172.88395492 -64.60859108 168.11510324 C-63.12716552 166.51082542 -61.64717694 164.90523537 -60.16767311 163.29918528 C-54.81174685 157.48698044 -49.43649222 151.69370251 -44.03876686 145.92027903 C-38.93015812 140.45532047 -33.85625961 134.9607872 -28.80829811 129.43981028 C-24.42918474 124.65140409 -20.02093363 119.88980828 -15.61738014 115.12389231 C-13.11112583 112.41100317 -10.60624541 109.6968461 -8.10126686 106.98277903 C-5.09023814 103.72042218 -2.0789116 100.4583431 0.93388939 97.19762278 C1.44113548 96.64848215 1.94838158 96.09934153 2.47099876 95.53356028 C3.85431346 94.03602694 5.23784246 92.53869156 6.62138939 91.04137278 C11.38981663 85.86373605 16.1423891 80.67151797 20.89873314 75.48277903 C-18.04126686 75.15277903 -56.98126686 74.82277903 -97.10126686 74.48277903 C-93.47290064 70.2496851 -89.86882128 66.07999445 -86.10126686 61.98277903 C-85.63905739 61.47996408 -85.17684792 60.97714914 -84.7006321 60.45909739 C-80.28048409 55.65934955 -75.82534991 50.89226759 -71.36933327 46.12584543 C-66.07821848 40.46474284 -60.81919814 34.7746216 -55.5690403 29.07555246 C-48.29122304 21.1779344 -48.29122304 21.1779344 -46.77632141 19.62156916 C-44.17679015 16.90467557 -41.90995345 14.32178344 -40.03180885 11.05507517 C-31.21667585 -2.93319446 -14.59893137 -0.27716992 0 0 Z " fill="#82C0F1" transform="translate(1030.101266860962,473.5172209739685)"/>
<path d="M0 0 C1.05738121 -0.00188513 2.11476242 -0.00377026 3.20418549 -0.00571251 C4.42080872 -0.01981163 5.63743195 -0.03391075 6.89092255 -0.04843712 C8.23635473 -0.03871547 9.58178325 -0.02847462 10.92720795 -0.01776695 C12.3467445 -0.02454387 13.76627227 -0.03344742 15.18578339 -0.04431725 C19.04182008 -0.06712575 22.89718829 -0.058264 26.75323677 -0.04242182 C30.79688171 -0.02975087 34.8404699 -0.04150807 38.88411713 -0.04935265 C45.68341563 -0.05845411 52.48244283 -0.04645717 59.28170013 -0.02264977 C67.11840928 0.00447521 74.95446623 -0.00418725 82.79115915 -0.03178179 C89.53282919 -0.05456273 96.27430412 -0.0576267 103.01600027 -0.04458845 C107.03613789 -0.03683172 111.05597049 -0.03564536 115.07608795 -0.05227089 C118.86518512 -0.06684466 122.6534541 -0.05646255 126.44246292 -0.02779961 C128.47737526 -0.01815851 130.5123586 -0.03278459 132.54723358 -0.04843712 C143.61709113 0.07751313 153.34701039 2.81577794 161.51119232 10.6057682 C170.05278875 20.48198908 172.27068597 30.81838997 171.48189545 43.54180336 C170.3686304 54.0710248 163.73485435 61.07463119 156.62056732 68.24151039 C154.67835746 70.22418295 152.84792097 72.29897137 151.01119232 74.3792057 C146.41440745 79.50227721 141.70170117 84.5132281 136.98751068 89.52788734 C131.03820391 95.85799735 125.14369783 102.23708213 119.26119232 108.6292057 C112.35819189 116.12541463 105.43107971 123.59800486 98.4726181 131.04277992 C94.23121551 135.58305372 90.01176644 140.14293386 85.80245209 144.71294594 C81.95239183 148.8893149 78.07830494 153.04279243 74.19869232 157.1917057 C70.0299763 161.65041937 65.87949457 166.12386771 61.76119232 170.6292057 C57.05131517 175.78171449 52.29477467 180.88888318 47.5273056 185.98809242 C41.74405237 192.1761892 35.99940459 198.39936615 30.26119232 204.6292057 C28.30341436 206.75471832 26.34510205 208.87973609 24.38619232 211.0042057 C23.90198822 211.52965981 23.41778412 212.05511391 22.91890717 212.59649086 C20.13672065 215.61151156 17.34183171 218.61401478 14.53462982 221.6057682 C13.59272797 222.61051186 13.59272797 222.61051186 12.63179779 223.63555336 C11.41629036 224.93101586 10.19925202 226.22504424 8.9804306 227.5173893 C6.57995816 230.07618043 4.26980804 232.61836258 2.08541107 235.36748695 C0.37373229 237.48967543 -1.320629 239.09949604 -3.42630768 240.8167057 C-7.34506078 244.17460974 -10.72036677 247.83199171 -14.12943268 251.6995182 C-17.23595486 255.18737993 -20.41936552 258.59703041 -23.61380768 262.0042057 C-27.8461913 266.52446818 -32.06169337 271.05779152 -36.23880768 275.6292057 C-40.35711458 280.13454879 -44.50797025 284.60763312 -48.67630768 289.0667057 C-49.86644029 290.34141873 -51.0565446 291.61615818 -52.24662018 292.89092445 C-53.95816581 294.72404754 -55.6704993 296.55638257 -57.38626862 298.38555336 C-62.55721138 303.90006459 -67.63516767 309.41211669 -72.36380768 315.3167057 C-76.02593142 319.88109181 -79.9671063 323.99344563 -84.18412018 328.04717445 C-86.87610386 330.76797142 -89.36397478 333.61204752 -91.86917877 336.50347328 C-94.98562788 340.0468165 -98.24063331 343.45699374 -101.48880768 346.8792057 C-107.07597439 352.79034066 -112.61886199 358.73470617 -118.10208893 364.74248695 C-122.45874515 369.51221873 -126.84745188 374.25232562 -131.23148346 378.99688148 C-132.71290902 380.60115931 -134.1928976 382.20674936 -135.67240143 383.81279945 C-141.02832769 389.62500429 -146.40358232 395.41828222 -151.80130768 401.1917057 C-156.00969942 405.69365284 -160.20390917 410.20739272 -164.36380768 414.7542057 C-165.67671783 416.18893227 -165.67671783 416.18893227 -167.01615143 417.6526432 C-168.42656058 419.19455302 -169.83692543 420.73650314 -171.24710846 422.27861977 C-174.28420229 425.59648536 -177.33431119 428.90141341 -180.40335846 432.18975258 C-181.58775833 433.46639273 -182.75628745 434.75771636 -183.92240143 436.0510807 C-189.34714821 441.85785191 -196.90703655 447.32008558 -205.13540405 447.75624021 C-206.09433972 447.75720293 -207.05327539 447.75816565 -208.04126972 447.75915754 C-209.70451748 447.76445017 -209.70451748 447.76445017 -211.4013662 447.76984972 C-213.23982489 447.76805305 -213.23982489 447.76805305 -215.11542416 447.76622009 C-217.06782789 447.77019783 -217.06782789 447.77019783 -219.05967411 447.77425593 C-222.69622707 447.78150943 -226.33275942 447.7824852 -229.96931862 447.7824787 C-233.91679623 447.78354596 -237.86426459 447.79033388 -241.81173712 447.79638541 C-249.65185147 447.80747352 -257.49196133 447.81311275 -265.33208214 447.81709428 C-274.71875961 447.82209845 -284.10542837 447.83282523 -293.49210071 447.84357602 C-316.18376043 447.86922234 -338.87542355 447.8842449 -361.56709362 447.89708649 C-369.08205329 447.90133987 -376.59701272 447.90590556 -384.11197209 447.9106698 C-424.05504816 447.93592944 -463.99812463 447.95798129 -503.94120693 447.97039795 C-513.19836618 447.97331936 -522.45552541 447.97628686 -531.71268463 447.97930336 C-532.86279058 447.97967427 -534.01289653 447.98004518 -535.19785417 447.98042733 C-572.48884586 447.99258342 -609.77979036 448.02352754 -647.07075988 448.06522488 C-685.39671913 448.10800144 -723.72265345 448.13463759 -762.04863723 448.13987266 C-767.4606812 448.14061313 -772.87272513 448.14152381 -778.28476906 448.14253044 C-779.3499295 448.14272106 -780.41508995 448.14291167 -781.51252798 448.14310806 C-798.66265186 448.14662323 -815.81271669 448.16692859 -832.96281888 448.19332708 C-850.19930962 448.21945861 -867.43573206 448.22720468 -884.67223977 448.21622579 C-894.91447121 448.21024472 -905.15647115 448.21818307 -915.3986676 448.24605663 C-922.24105387 448.26330082 -929.08328216 448.26236611 -935.92567178 448.24668894 C-939.8239674 448.23827332 -943.72182107 448.23770799 -947.62007581 448.2593004 C-951.82359206 448.2823963 -956.02608629 448.26664244 -960.22962093 448.24723816 C-961.43418956 448.26008738 -962.63875819 448.2729366 -963.8798289 448.28617519 C-974.57152885 448.17756606 -984.13429168 445.14716055 -991.98880768 437.6526432 C-1000.53040411 427.77642233 -1002.74830133 417.44002144 -1001.9595108 404.71660805 C-1000.84624575 394.18738661 -994.21246971 387.18378022 -987.09818268 380.01690102 C-985.15597282 378.03422845 -983.32553632 375.95944004 -981.48880768 373.8792057 C-976.89202281 368.7561342 -972.17931652 363.74518331 -967.46512604 358.73052406 C-961.51581926 352.40041406 -955.62131318 346.02132928 -949.73880768 339.6292057 C-942.83580725 332.13299678 -935.90869507 324.66040654 -928.95023346 317.21563148 C-924.70883086 312.67535769 -920.48938179 308.11547755 -916.28006744 303.54546547 C-912.43000719 299.36909651 -908.5559203 295.21561898 -904.67630768 291.0667057 C-900.50759165 286.60799204 -896.35710992 282.13454369 -892.23880768 277.6292057 C-887.52893052 272.47669692 -882.77239003 267.36952822 -878.00492096 262.27031898 C-872.22166773 256.08222221 -866.47701995 249.85904526 -860.73880768 243.6292057 C-858.78102972 241.50369309 -856.82271741 239.37867532 -854.86380768 237.2542057 C-854.37960358 236.7287516 -853.89539948 236.2032975 -853.39652252 235.66192055 C-850.614336 232.64689985 -847.81944707 229.64439663 -845.01224518 226.6526432 C-844.07034332 225.64789955 -844.07034332 225.64789955 -843.10941315 224.62285805 C-841.89390572 223.32739555 -840.67686738 222.03336717 -839.45804596 220.74102211 C-838.62249176 219.85036049 -838.62249176 219.85036049 -837.77005768 218.9417057 C-837.28085846 218.42221352 -836.79165924 217.90272133 -836.2876358 217.36748695 C-834.60353014 215.5951237 -834.60353014 215.5951237 -833.24985504 213.05603981 C-830.01098878 209.92579574 -828.19864572 210.04219848 -823.83153534 210.00710487 C-822.90149185 210.02508125 -821.97144836 210.04305763 -821.01322174 210.06157875 C-820.02752701 210.06084862 -819.04183228 210.06011848 -818.02626801 210.05936623 C-814.76842965 210.06284948 -811.51202124 210.10174698 -808.25443268 210.14092445 C-805.9957126 210.15024991 -803.7369824 210.15736728 -801.4782486 210.16236305 C-795.53334378 210.18145362 -789.58904978 210.23057309 -783.64438629 210.28588295 C-777.5782879 210.33703049 -771.5120908 210.35986755 -765.44583893 210.38506508 C-753.54322681 210.43868907 -741.64106804 210.52402751 -729.73880768 210.6292057 C-732.40101626 214.71277779 -735.03272403 218.12414897 -738.55130768 221.5042057 C-742.21494157 225.03387524 -745.58930645 228.70846844 -748.91580963 232.55010414 C-751.8377257 235.88250501 -754.88242928 239.09602117 -757.92630768 242.3167057 C-759.2522306 243.72518146 -760.57774649 245.13404049 -761.90287018 246.5432682 C-762.55287994 247.23452797 -763.20288971 247.92578773 -763.87259674 248.63799477 C-766.53128405 251.47476265 -769.16863813 254.33080609 -771.80130768 257.1917057 C-776.11429368 261.87758074 -780.45133363 266.54014916 -784.80130768 271.1917057 C-788.97004322 275.65040084 -793.12050568 280.12386798 -797.23880768 284.6292057 C-801.94868483 289.78171449 -806.70522533 294.88888318 -811.4726944 299.98809242 C-817.25594763 306.1761892 -823.00059541 312.39936615 -828.73880768 318.6292057 C-835.64130107 326.12307738 -842.56652967 333.59455683 -849.52298737 341.03838539 C-854.77921981 346.66571422 -860.00533836 352.32033924 -865.2226944 357.98369789 C-867.95586215 360.95013117 -870.69104302 363.91470605 -873.42630768 366.8792057 C-873.9440274 367.44075356 -874.46174713 368.00230141 -874.99515533 368.58086586 C-878.62560518 372.51600321 -878.62560518 372.51600321 -879.73880768 373.6292057 C-817.70623578 373.80057745 -755.67363654 373.95957545 -693.64089203 374.0526371 C-692.72298566 374.05401767 -691.8050793 374.05539824 -690.85935759 374.05682065 C-670.91142646 374.08674879 -650.96349281 374.11445074 -631.01555542 374.139859 C-621.23328283 374.15233251 -611.45101092 374.16529803 -601.66873932 374.17852211 C-600.20854841 374.1804835 -600.20854841 374.1804835 -598.7188587 374.18248451 C-567.15849121 374.22510829 -535.5983026 374.30022892 -504.0380435 374.39217791 C-471.60940931 374.4864854 -439.18087414 374.54805581 -406.75210513 374.5683556 C-402.17319361 374.57123721 -397.59428242 374.57449358 -393.01537132 374.57797813 C-392.11416402 374.57865236 -391.21295671 374.57932659 -390.28444009 374.58002126 C-375.76951912 374.5918447 -361.25490405 374.63824175 -346.74010789 374.69752604 C-332.15254762 374.75637123 -317.56529103 374.77889253 -302.9776162 374.76421948 C-294.30744506 374.75660567 -285.63838421 374.77695814 -276.9684133 374.83718113 C-271.17769875 374.87466092 -265.38771178 374.8758579 -259.59694713 374.84752384 C-256.29617706 374.83241302 -252.9979327 374.83862427 -249.69730217 374.87803753 C-236.37181767 375.77437609 -236.37181767 375.77437609 -224.28884304 371.46507144 C-221.99261996 368.95259958 -220.40021812 366.5836947 -218.73880768 363.6292057 C-217.51713134 362.24489345 -216.26403577 360.8868753 -214.96537018 359.5745182 C-214.07869659 358.6327372 -214.07869659 358.6327372 -213.17411041 357.67193031 C-212.57671051 357.03908119 -211.97931061 356.40623207 -211.36380768 355.7542057 C-206.04658342 350.10262324 -200.77639243 344.41368278 -195.54349518 338.6838932 C-192.32041507 335.16379779 -189.06096274 331.67790392 -185.80130768 328.1917057 C-179.4179512 321.36422931 -173.07110188 314.50402578 -166.73880768 307.6292057 C-159.83631428 300.13533402 -152.91108568 292.66385458 -145.95462799 285.22002602 C-140.68211598 279.57526826 -135.44004407 273.9029259 -130.20658112 268.22197914 C-127.21734177 264.97816719 -124.22427753 261.73788316 -121.2317276 258.49712563 C-118.76736468 255.82803225 -116.30427581 253.15779053 -113.84427643 250.48467445 C-107.70292038 243.81502971 -101.51894221 237.18708787 -95.31253815 230.57793617 C-89.41721181 224.29593201 -83.57255276 217.96834461 -77.73880768 211.6292057 C-70.8372079 204.1345178 -63.91107849 196.66384688 -56.95462799 189.22002602 C-51.1892938 183.04765224 -45.46095024 176.84159877 -39.73880768 170.6292057 C-32.83631428 163.13533402 -25.91108568 155.66385458 -18.95462799 148.22002602 C-13.1892938 142.04765224 -7.46095024 135.84159877 -1.73880768 129.6292057 C5.16368572 122.13533402 12.08891432 114.66385458 19.04537201 107.22002602 C24.30160445 101.59269719 29.527723 95.93807216 34.74507904 90.27471352 C37.4782468 87.30828024 40.21342766 84.34370535 42.94869232 81.3792057 C43.46641205 80.81765785 43.98413177 80.25611 44.51753998 79.67754555 C48.14798983 75.7424082 48.14798983 75.7424082 49.26119232 74.6292057 C10.32119232 74.2992057 -28.61880768 73.9692057 -68.73880768 73.6292057 C-62.03807775 64.69489913 -62.03807775 64.69489913 -58.80130768 61.6292057 C-56.2080327 59.16256624 -53.81273812 56.59633045 -51.46927643 53.8948307 C-47.75398855 49.61371017 -43.89060796 45.49001403 -39.98880768 41.3792057 C-34.45421413 35.52435553 -28.96695745 29.63444438 -23.53958893 23.67998695 C-21.40813726 21.34873609 -19.25503998 19.03877967 -17.09427643 16.73467445 C-16.46537506 16.06387856 -15.83647369 15.39308266 -15.18851471 14.70195961 C-13.96320804 13.39676231 -12.73640514 12.09296745 -11.50785065 10.7908268 C-10.94598053 10.1922184 -10.38411041 9.59361 -9.80521393 8.97686195 C-9.06186798 8.18807655 -9.06186798 8.18807655 -8.30350494 7.38335609 C-6.61378784 5.56934766 -6.61378784 5.56934766 -5.01245117 3.05925369 C-2.73880768 0.6292057 -2.73880768 0.6292057 0 0 Z " fill="#EBB961" transform="translate(1001.7388076782227,237.37079429626465)"/>
</svg>
